%FSLAX45Y45*%
G04 Gerber Fmt 4.5, Leading zero omitted, Abs format (unit mm)*
G04 Created by KiCad (PCBNEW (6.0.1-0)) date 2022-08-05 19:05:13*
%MOMM*%
%LPD*%
G01*
G04 APERTURE LIST*
%TA.AperFunction,Profile*%
%ADD10C,0.050000*%
%TD*%
%TA.AperFunction,Profile*%
%ADD11C,0.100000*%
%TD*%
%ADD12C,0.200000*%
%ADD13C,0.600000*%
G04 APERTURE END LIST*
D10*
X19870000Y-6200360D02*
X9875000Y-6200360D01*
D11*
X10591800Y-10820400D02*
X10591800Y-11061700D01*
X11049000Y-10845800D02*
X10833100Y-10845800D01*
X11049000Y-11087100D02*
X10833100Y-11087100D01*
X10807700Y-10820400D02*
X10591800Y-10820400D01*
X10591800Y-11061700D02*
X10807700Y-11061700D01*
X19100800Y-10820400D02*
X19100800Y-11061700D01*
X18643600Y-11087100D02*
X18859500Y-11087100D01*
X18884900Y-11061700D02*
X18859500Y-11087100D01*
X18884900Y-10820400D02*
X18859500Y-10845800D01*
X18643600Y-10845800D02*
X18643600Y-11087100D01*
X18884900Y-10820400D02*
X19100800Y-10820400D01*
X19100800Y-11061700D02*
X18884900Y-11061700D01*
X18643600Y-10845800D02*
X18859500Y-10845800D01*
D10*
X9875000Y-14800360D02*
X19870000Y-14800360D01*
X19870000Y-14800360D02*
X19870000Y-6200360D01*
X9875000Y-6200360D02*
X9875000Y-14800360D01*
D11*
X10807700Y-11061700D02*
X10833100Y-11087100D01*
X11049000Y-10845800D02*
X11049000Y-11087100D01*
X10807700Y-10820400D02*
X10833100Y-10845800D01*
D12*
D13*
X14546300Y-8348700D02*
X15146300Y-8948700D01*
X15146300Y-8348700D02*
X14546300Y-8948700D01*
D12*
X10130119Y-15113336D02*
X10130119Y-14913336D01*
X10177738Y-14913336D01*
X10206310Y-14922860D01*
X10225357Y-14941908D01*
X10234881Y-14960955D01*
X10244405Y-14999050D01*
X10244405Y-15027622D01*
X10234881Y-15065717D01*
X10225357Y-15084765D01*
X10206310Y-15103812D01*
X10177738Y-15113336D01*
X10130119Y-15113336D01*
X10330119Y-15113336D02*
X10330119Y-14980003D01*
X10330119Y-15018098D02*
X10339643Y-14999050D01*
X10349167Y-14989527D01*
X10368214Y-14980003D01*
X10387262Y-14980003D01*
X10453929Y-15113336D02*
X10453929Y-14980003D01*
X10453929Y-14913336D02*
X10444405Y-14922860D01*
X10453929Y-14932384D01*
X10463452Y-14922860D01*
X10453929Y-14913336D01*
X10453929Y-14932384D01*
X10577738Y-15113336D02*
X10558690Y-15103812D01*
X10549167Y-15084765D01*
X10549167Y-14913336D01*
X10682500Y-15113336D02*
X10663452Y-15103812D01*
X10653929Y-15084765D01*
X10653929Y-14913336D01*
X10911071Y-15113336D02*
X10911071Y-14913336D01*
X10977738Y-15056193D01*
X11044405Y-14913336D01*
X11044405Y-15113336D01*
X11225357Y-15113336D02*
X11225357Y-15008574D01*
X11215833Y-14989527D01*
X11196786Y-14980003D01*
X11158690Y-14980003D01*
X11139643Y-14989527D01*
X11225357Y-15103812D02*
X11206309Y-15113336D01*
X11158690Y-15113336D01*
X11139643Y-15103812D01*
X11130119Y-15084765D01*
X11130119Y-15065717D01*
X11139643Y-15046669D01*
X11158690Y-15037146D01*
X11206309Y-15037146D01*
X11225357Y-15027622D01*
X11320595Y-14980003D02*
X11320595Y-15180003D01*
X11320595Y-14989527D02*
X11339643Y-14980003D01*
X11377738Y-14980003D01*
X11396786Y-14989527D01*
X11406309Y-14999050D01*
X11415833Y-15018098D01*
X11415833Y-15075241D01*
X11406309Y-15094288D01*
X11396786Y-15103812D01*
X11377738Y-15113336D01*
X11339643Y-15113336D01*
X11320595Y-15103812D01*
X11501548Y-15094288D02*
X11511071Y-15103812D01*
X11501548Y-15113336D01*
X11492024Y-15103812D01*
X11501548Y-15094288D01*
X11501548Y-15113336D01*
X11501548Y-14989527D02*
X11511071Y-14999050D01*
X11501548Y-15008574D01*
X11492024Y-14999050D01*
X11501548Y-14989527D01*
X11501548Y-15008574D01*
X9672500Y-15342860D02*
X9872500Y-15542860D01*
X9872500Y-15342860D02*
X9672500Y-15542860D01*
X10215833Y-15333336D02*
X10177738Y-15333336D01*
X10158690Y-15342860D01*
X10149167Y-15352384D01*
X10130119Y-15380955D01*
X10120595Y-15419050D01*
X10120595Y-15495241D01*
X10130119Y-15514288D01*
X10139643Y-15523812D01*
X10158690Y-15533336D01*
X10196786Y-15533336D01*
X10215833Y-15523812D01*
X10225357Y-15514288D01*
X10234881Y-15495241D01*
X10234881Y-15447622D01*
X10225357Y-15428574D01*
X10215833Y-15419050D01*
X10196786Y-15409527D01*
X10158690Y-15409527D01*
X10139643Y-15419050D01*
X10130119Y-15428574D01*
X10120595Y-15447622D01*
X10320595Y-15514288D02*
X10330119Y-15523812D01*
X10320595Y-15533336D01*
X10311071Y-15523812D01*
X10320595Y-15514288D01*
X10320595Y-15533336D01*
X10453929Y-15333336D02*
X10472976Y-15333336D01*
X10492024Y-15342860D01*
X10501548Y-15352384D01*
X10511071Y-15371431D01*
X10520595Y-15409527D01*
X10520595Y-15457146D01*
X10511071Y-15495241D01*
X10501548Y-15514288D01*
X10492024Y-15523812D01*
X10472976Y-15533336D01*
X10453929Y-15533336D01*
X10434881Y-15523812D01*
X10425357Y-15514288D01*
X10415833Y-15495241D01*
X10406310Y-15457146D01*
X10406310Y-15409527D01*
X10415833Y-15371431D01*
X10425357Y-15352384D01*
X10434881Y-15342860D01*
X10453929Y-15333336D01*
X10644405Y-15333336D02*
X10663452Y-15333336D01*
X10682500Y-15342860D01*
X10692024Y-15352384D01*
X10701548Y-15371431D01*
X10711071Y-15409527D01*
X10711071Y-15457146D01*
X10701548Y-15495241D01*
X10692024Y-15514288D01*
X10682500Y-15523812D01*
X10663452Y-15533336D01*
X10644405Y-15533336D01*
X10625357Y-15523812D01*
X10615833Y-15514288D01*
X10606310Y-15495241D01*
X10596786Y-15457146D01*
X10596786Y-15409527D01*
X10606310Y-15371431D01*
X10615833Y-15352384D01*
X10625357Y-15342860D01*
X10644405Y-15333336D01*
X10834881Y-15333336D02*
X10853929Y-15333336D01*
X10872976Y-15342860D01*
X10882500Y-15352384D01*
X10892024Y-15371431D01*
X10901548Y-15409527D01*
X10901548Y-15457146D01*
X10892024Y-15495241D01*
X10882500Y-15514288D01*
X10872976Y-15523812D01*
X10853929Y-15533336D01*
X10834881Y-15533336D01*
X10815833Y-15523812D01*
X10806310Y-15514288D01*
X10796786Y-15495241D01*
X10787262Y-15457146D01*
X10787262Y-15409527D01*
X10796786Y-15371431D01*
X10806310Y-15352384D01*
X10815833Y-15342860D01*
X10834881Y-15333336D01*
X10987262Y-15533336D02*
X10987262Y-15400003D01*
X10987262Y-15419050D02*
X10996786Y-15409527D01*
X11015833Y-15400003D01*
X11044405Y-15400003D01*
X11063452Y-15409527D01*
X11072976Y-15428574D01*
X11072976Y-15533336D01*
X11072976Y-15428574D02*
X11082500Y-15409527D01*
X11101548Y-15400003D01*
X11130119Y-15400003D01*
X11149167Y-15409527D01*
X11158690Y-15428574D01*
X11158690Y-15533336D01*
X11253928Y-15533336D02*
X11253928Y-15400003D01*
X11253928Y-15419050D02*
X11263452Y-15409527D01*
X11282500Y-15400003D01*
X11311071Y-15400003D01*
X11330119Y-15409527D01*
X11339643Y-15428574D01*
X11339643Y-15533336D01*
X11339643Y-15428574D02*
X11349167Y-15409527D01*
X11368214Y-15400003D01*
X11396786Y-15400003D01*
X11415833Y-15409527D01*
X11425357Y-15428574D01*
X11425357Y-15533336D01*
X11815833Y-15323812D02*
X11644405Y-15580955D01*
X12072976Y-15333336D02*
X12092024Y-15333336D01*
X12111071Y-15342860D01*
X12120595Y-15352384D01*
X12130119Y-15371431D01*
X12139643Y-15409527D01*
X12139643Y-15457146D01*
X12130119Y-15495241D01*
X12120595Y-15514288D01*
X12111071Y-15523812D01*
X12092024Y-15533336D01*
X12072976Y-15533336D01*
X12053928Y-15523812D01*
X12044405Y-15514288D01*
X12034881Y-15495241D01*
X12025357Y-15457146D01*
X12025357Y-15409527D01*
X12034881Y-15371431D01*
X12044405Y-15352384D01*
X12053928Y-15342860D01*
X12072976Y-15333336D01*
X12225357Y-15514288D02*
X12234881Y-15523812D01*
X12225357Y-15533336D01*
X12215833Y-15523812D01*
X12225357Y-15514288D01*
X12225357Y-15533336D01*
X12311071Y-15352384D02*
X12320595Y-15342860D01*
X12339643Y-15333336D01*
X12387262Y-15333336D01*
X12406309Y-15342860D01*
X12415833Y-15352384D01*
X12425357Y-15371431D01*
X12425357Y-15390479D01*
X12415833Y-15419050D01*
X12301548Y-15533336D01*
X12425357Y-15533336D01*
X12492024Y-15333336D02*
X12615833Y-15333336D01*
X12549167Y-15409527D01*
X12577738Y-15409527D01*
X12596786Y-15419050D01*
X12606309Y-15428574D01*
X12615833Y-15447622D01*
X12615833Y-15495241D01*
X12606309Y-15514288D01*
X12596786Y-15523812D01*
X12577738Y-15533336D01*
X12520595Y-15533336D01*
X12501548Y-15523812D01*
X12492024Y-15514288D01*
X12787262Y-15333336D02*
X12749167Y-15333336D01*
X12730119Y-15342860D01*
X12720595Y-15352384D01*
X12701548Y-15380955D01*
X12692024Y-15419050D01*
X12692024Y-15495241D01*
X12701548Y-15514288D01*
X12711071Y-15523812D01*
X12730119Y-15533336D01*
X12768214Y-15533336D01*
X12787262Y-15523812D01*
X12796786Y-15514288D01*
X12806309Y-15495241D01*
X12806309Y-15447622D01*
X12796786Y-15428574D01*
X12787262Y-15419050D01*
X12768214Y-15409527D01*
X12730119Y-15409527D01*
X12711071Y-15419050D01*
X12701548Y-15428574D01*
X12692024Y-15447622D01*
X12882500Y-15352384D02*
X12892024Y-15342860D01*
X12911071Y-15333336D01*
X12958690Y-15333336D01*
X12977738Y-15342860D01*
X12987262Y-15352384D01*
X12996786Y-15371431D01*
X12996786Y-15390479D01*
X12987262Y-15419050D01*
X12872976Y-15533336D01*
X12996786Y-15533336D01*
X13072976Y-15333336D02*
X13072976Y-15371431D01*
X13149167Y-15333336D02*
X13149167Y-15371431D01*
X13444405Y-15609527D02*
X13434881Y-15600003D01*
X13415833Y-15571431D01*
X13406309Y-15552384D01*
X13396786Y-15523812D01*
X13387262Y-15476193D01*
X13387262Y-15438098D01*
X13396786Y-15390479D01*
X13406309Y-15361908D01*
X13415833Y-15342860D01*
X13434881Y-15314288D01*
X13444405Y-15304765D01*
X13625357Y-15533336D02*
X13511071Y-15533336D01*
X13568214Y-15533336D02*
X13568214Y-15333336D01*
X13549167Y-15361908D01*
X13530119Y-15380955D01*
X13511071Y-15390479D01*
X13863452Y-15533336D02*
X13863452Y-15333336D01*
X13949167Y-15533336D02*
X13949167Y-15428574D01*
X13939643Y-15409527D01*
X13920595Y-15400003D01*
X13892024Y-15400003D01*
X13872976Y-15409527D01*
X13863452Y-15419050D01*
X14072976Y-15533336D02*
X14053928Y-15523812D01*
X14044405Y-15514288D01*
X14034881Y-15495241D01*
X14034881Y-15438098D01*
X14044405Y-15419050D01*
X14053928Y-15409527D01*
X14072976Y-15400003D01*
X14101548Y-15400003D01*
X14120595Y-15409527D01*
X14130119Y-15419050D01*
X14139643Y-15438098D01*
X14139643Y-15495241D01*
X14130119Y-15514288D01*
X14120595Y-15523812D01*
X14101548Y-15533336D01*
X14072976Y-15533336D01*
X14253928Y-15533336D02*
X14234881Y-15523812D01*
X14225357Y-15504765D01*
X14225357Y-15333336D01*
X14406309Y-15523812D02*
X14387262Y-15533336D01*
X14349167Y-15533336D01*
X14330119Y-15523812D01*
X14320595Y-15504765D01*
X14320595Y-15428574D01*
X14330119Y-15409527D01*
X14349167Y-15400003D01*
X14387262Y-15400003D01*
X14406309Y-15409527D01*
X14415833Y-15428574D01*
X14415833Y-15447622D01*
X14320595Y-15466669D01*
X14482500Y-15609527D02*
X14492024Y-15600003D01*
X14511071Y-15571431D01*
X14520595Y-15552384D01*
X14530119Y-15523812D01*
X14539643Y-15476193D01*
X14539643Y-15438098D01*
X14530119Y-15390479D01*
X14520595Y-15361908D01*
X14511071Y-15342860D01*
X14492024Y-15314288D01*
X14482500Y-15304765D01*
X14844405Y-15609527D02*
X14834881Y-15600003D01*
X14815833Y-15571431D01*
X14806309Y-15552384D01*
X14796786Y-15523812D01*
X14787262Y-15476193D01*
X14787262Y-15438098D01*
X14796786Y-15390479D01*
X14806309Y-15361908D01*
X14815833Y-15342860D01*
X14834881Y-15314288D01*
X14844405Y-15304765D01*
X14920595Y-15400003D02*
X14920595Y-15533336D01*
X14920595Y-15419050D02*
X14930119Y-15409527D01*
X14949167Y-15400003D01*
X14977738Y-15400003D01*
X14996786Y-15409527D01*
X15006309Y-15428574D01*
X15006309Y-15533336D01*
X15130119Y-15533336D02*
X15111071Y-15523812D01*
X15101548Y-15514288D01*
X15092024Y-15495241D01*
X15092024Y-15438098D01*
X15101548Y-15419050D01*
X15111071Y-15409527D01*
X15130119Y-15400003D01*
X15158690Y-15400003D01*
X15177738Y-15409527D01*
X15187262Y-15419050D01*
X15196786Y-15438098D01*
X15196786Y-15495241D01*
X15187262Y-15514288D01*
X15177738Y-15523812D01*
X15158690Y-15533336D01*
X15130119Y-15533336D01*
X15253928Y-15400003D02*
X15330119Y-15400003D01*
X15282500Y-15333336D02*
X15282500Y-15504765D01*
X15292024Y-15523812D01*
X15311071Y-15533336D01*
X15330119Y-15533336D01*
X15549167Y-15400003D02*
X15549167Y-15600003D01*
X15549167Y-15409527D02*
X15568214Y-15400003D01*
X15606309Y-15400003D01*
X15625357Y-15409527D01*
X15634881Y-15419050D01*
X15644405Y-15438098D01*
X15644405Y-15495241D01*
X15634881Y-15514288D01*
X15625357Y-15523812D01*
X15606309Y-15533336D01*
X15568214Y-15533336D01*
X15549167Y-15523812D01*
X15758690Y-15533336D02*
X15739643Y-15523812D01*
X15730119Y-15504765D01*
X15730119Y-15333336D01*
X15920595Y-15533336D02*
X15920595Y-15428574D01*
X15911071Y-15409527D01*
X15892024Y-15400003D01*
X15853928Y-15400003D01*
X15834881Y-15409527D01*
X15920595Y-15523812D02*
X15901548Y-15533336D01*
X15853928Y-15533336D01*
X15834881Y-15523812D01*
X15825357Y-15504765D01*
X15825357Y-15485717D01*
X15834881Y-15466669D01*
X15853928Y-15457146D01*
X15901548Y-15457146D01*
X15920595Y-15447622D01*
X15987262Y-15400003D02*
X16063452Y-15400003D01*
X16015833Y-15333336D02*
X16015833Y-15504765D01*
X16025357Y-15523812D01*
X16044405Y-15533336D01*
X16063452Y-15533336D01*
X16206309Y-15523812D02*
X16187262Y-15533336D01*
X16149167Y-15533336D01*
X16130119Y-15523812D01*
X16120595Y-15504765D01*
X16120595Y-15428574D01*
X16130119Y-15409527D01*
X16149167Y-15400003D01*
X16187262Y-15400003D01*
X16206309Y-15409527D01*
X16215833Y-15428574D01*
X16215833Y-15447622D01*
X16120595Y-15466669D01*
X16387262Y-15533336D02*
X16387262Y-15333336D01*
X16387262Y-15523812D02*
X16368214Y-15533336D01*
X16330119Y-15533336D01*
X16311071Y-15523812D01*
X16301548Y-15514288D01*
X16292024Y-15495241D01*
X16292024Y-15438098D01*
X16301548Y-15419050D01*
X16311071Y-15409527D01*
X16330119Y-15400003D01*
X16368214Y-15400003D01*
X16387262Y-15409527D01*
X16463452Y-15609527D02*
X16472976Y-15600003D01*
X16492024Y-15571431D01*
X16501548Y-15552384D01*
X16511071Y-15523812D01*
X16520595Y-15476193D01*
X16520595Y-15438098D01*
X16511071Y-15390479D01*
X16501548Y-15361908D01*
X16492024Y-15342860D01*
X16472976Y-15314288D01*
X16463452Y-15304765D01*
M02*
