M48
; DRILL file {KiCad (6.0.1-0)} date Friday, August 05, 2022 at 07:05:12 PM
; FORMAT={-:-/ absolute / metric / decimal}
; #@! TF.CreationDate,2022-08-05T19:05:12-07:00
; #@! TF.GenerationSoftware,Kicad,Pcbnew,(6.0.1-0)
; #@! TF.FileFunction,Plated,1,2,PTH
FMAT,2
METRIC
; #@! TA.AperFunction,Plated,PTH,ViaDrill
T1C0.400
; #@! TA.AperFunction,Plated,PTH,ComponentDrill
T2C0.800
; #@! TA.AperFunction,Plated,PTH,ComponentDrill
T3C1.000
; #@! TA.AperFunction,Plated,PTH,ComponentDrill
T4C4.300
%
G90
G05
T1
X107.696Y-66.04
X121.412Y-116.84
X125.222Y-116.332
X127.889Y-119.761
X130.429Y-116.84
X131.0Y-89.0
X131.572Y-118.11
X134.112Y-118.11
X181.61Y-143.43
X183.261Y-78.994
X186.309Y-74.803
X186.69Y-128.016
X187.325Y-79.883
X187.367Y-129.667
X191.0Y-129.5
T2
X101.346Y-110.102
X101.346Y-112.602
X101.346Y-115.102
X101.346Y-117.602
X101.346Y-120.102
X101.346Y-122.602
X101.346Y-125.102
X102.996Y-111.352
X102.996Y-113.852
X102.996Y-116.352
X102.996Y-118.852
X102.996Y-121.352
X102.996Y-123.852
X104.514Y-136.779
X104.521Y-67.049
X104.521Y-69.549
X104.521Y-72.049
X104.521Y-74.549
X104.521Y-77.049
X104.521Y-79.549
X104.521Y-82.049
X105.764Y-135.129
X106.171Y-68.299
X106.171Y-70.799
X106.171Y-73.299
X106.171Y-75.799
X106.171Y-78.299
X106.171Y-80.799
X107.014Y-136.779
X108.264Y-135.129
X109.514Y-136.779
X110.764Y-135.129
X112.014Y-136.779
X113.264Y-135.129
X114.514Y-136.779
X115.764Y-135.129
X117.014Y-136.779
X118.264Y-135.129
X119.514Y-136.779
X177.158Y-136.906
X178.408Y-135.256
X179.658Y-136.906
X180.908Y-135.256
X182.158Y-136.906
X183.408Y-135.256
X184.658Y-136.906
X185.908Y-135.256
X187.158Y-136.906
X188.408Y-135.256
X189.658Y-136.906
X190.882Y-69.823
X190.882Y-72.323
X190.882Y-74.823
X190.882Y-77.323
X190.882Y-79.823
X190.882Y-82.323
X190.908Y-135.256
X192.158Y-136.906
X192.532Y-68.573
X192.532Y-71.073
X192.532Y-73.573
X192.532Y-76.073
X192.532Y-78.573
X192.532Y-81.073
X192.532Y-83.573
X194.438Y-111.86
X194.438Y-114.36
X194.438Y-116.86
X194.438Y-119.36
X194.438Y-121.86
X194.438Y-124.36
X196.088Y-110.61
X196.088Y-113.11
X196.088Y-115.61
X196.088Y-118.11
X196.088Y-120.61
X196.088Y-123.11
X196.088Y-125.61
T3
X100.584Y-141.097
X103.124Y-141.097
X105.664Y-141.097
X108.204Y-141.097
X110.744Y-141.097
X113.284Y-141.097
X115.824Y-141.097
X118.364Y-141.097
X120.37Y-94.88
X120.37Y-110.12
X120.904Y-141.097
X122.91Y-94.88
X122.91Y-110.12
X123.444Y-141.097
X124.181Y-98.688
X124.181Y-101.228
X124.181Y-103.768
X124.181Y-106.308
X125.45Y-94.88
X125.45Y-110.12
X127.99Y-94.88
X127.99Y-110.12
X130.53Y-94.88
X130.53Y-110.12
X133.07Y-94.88
X133.07Y-110.12
X135.61Y-94.88
X135.61Y-110.12
X138.15Y-94.88
X138.15Y-110.12
X140.69Y-94.88
X140.69Y-110.12
X143.23Y-94.88
X143.23Y-110.12
X145.77Y-94.88
X145.77Y-110.12
X148.31Y-94.88
X148.31Y-110.12
X150.85Y-94.88
X150.85Y-110.12
X153.39Y-94.88
X153.39Y-110.12
X155.93Y-94.88
X155.93Y-110.12
X158.47Y-94.88
X158.47Y-110.12
X161.01Y-94.88
X161.01Y-110.12
X163.55Y-94.88
X163.55Y-110.12
X166.09Y-94.88
X166.09Y-110.12
X168.63Y-94.88
X168.63Y-110.12
X173.995Y-141.224
X176.535Y-141.224
X179.075Y-141.224
X181.615Y-141.224
X184.155Y-141.224
X186.695Y-141.224
X189.235Y-141.224
X191.775Y-141.224
X194.315Y-141.224
X196.855Y-141.224
T4
X148.501Y-118.004
T0
M30
