%FSLAX45Y45*%
G04 Gerber Fmt 4.5, Leading zero omitted, Abs format (unit mm)*
G04 Created by KiCad (PCBNEW (6.0.1-0)) date 2022-08-05 19:05:13*
%MOMM*%
%LPD*%
G01*
G04 APERTURE LIST*
%TA.AperFunction,Profile*%
%ADD10C,0.050000*%
%TD*%
%TA.AperFunction,Profile*%
%ADD11C,0.100000*%
%TD*%
%ADD12C,0.200000*%
%ADD13C,0.040000*%
%ADD14C,0.080000*%
%ADD15C,0.100000*%
%ADD16C,0.430000*%
G04 APERTURE END LIST*
D10*
X19870000Y-6200360D02*
X9875000Y-6200360D01*
D11*
X10591800Y-10820400D02*
X10591800Y-11061700D01*
X11049000Y-10845800D02*
X10833100Y-10845800D01*
X11049000Y-11087100D02*
X10833100Y-11087100D01*
X10807700Y-10820400D02*
X10591800Y-10820400D01*
X10591800Y-11061700D02*
X10807700Y-11061700D01*
X19100800Y-10820400D02*
X19100800Y-11061700D01*
X18643600Y-11087100D02*
X18859500Y-11087100D01*
X18884900Y-11061700D02*
X18859500Y-11087100D01*
X18884900Y-10820400D02*
X18859500Y-10845800D01*
X18643600Y-10845800D02*
X18643600Y-11087100D01*
X18884900Y-10820400D02*
X19100800Y-10820400D01*
X19100800Y-11061700D02*
X18884900Y-11061700D01*
X18643600Y-10845800D02*
X18859500Y-10845800D01*
D10*
X9875000Y-14800360D02*
X19870000Y-14800360D01*
X19870000Y-14800360D02*
X19870000Y-6200360D01*
X9875000Y-6200360D02*
X9875000Y-14800360D01*
D11*
X10807700Y-11061700D02*
X10833100Y-11087100D01*
X11049000Y-10845800D02*
X11049000Y-11087100D01*
X10807700Y-10820400D02*
X10833100Y-10845800D01*
D12*
D13*
X10749600Y-6584000D02*
X10789600Y-6624000D01*
X10789600Y-6584000D02*
X10749600Y-6624000D01*
X12121200Y-11664000D02*
X12161200Y-11704000D01*
X12161200Y-11664000D02*
X12121200Y-11704000D01*
X12502200Y-11613200D02*
X12542200Y-11653200D01*
X12542200Y-11613200D02*
X12502200Y-11653200D01*
X12768900Y-11956100D02*
X12808900Y-11996100D01*
X12808900Y-11956100D02*
X12768900Y-11996100D01*
X13022900Y-11664000D02*
X13062900Y-11704000D01*
X13062900Y-11664000D02*
X13022900Y-11704000D01*
X13080000Y-8880000D02*
X13120000Y-8920000D01*
X13120000Y-8880000D02*
X13080000Y-8920000D01*
X13137200Y-11791000D02*
X13177200Y-11831000D01*
X13177200Y-11791000D02*
X13137200Y-11831000D01*
X13391200Y-11791000D02*
X13431200Y-11831000D01*
X13431200Y-11791000D02*
X13391200Y-11831000D01*
X18141000Y-14322973D02*
X18181000Y-14362973D01*
X18181000Y-14322973D02*
X18141000Y-14362973D01*
X18306100Y-7879400D02*
X18346100Y-7919400D01*
X18346100Y-7879400D02*
X18306100Y-7919400D01*
X18610900Y-7460300D02*
X18650900Y-7500300D01*
X18650900Y-7460300D02*
X18610900Y-7500300D01*
X18649000Y-12781600D02*
X18689000Y-12821600D01*
X18689000Y-12781600D02*
X18649000Y-12821600D01*
X18712500Y-7968300D02*
X18752500Y-8008300D01*
X18752500Y-7968300D02*
X18712500Y-8008300D01*
X18716690Y-12946700D02*
X18756690Y-12986700D01*
X18756690Y-12946700D02*
X18716690Y-12986700D01*
X19080000Y-12930000D02*
X19120000Y-12970000D01*
X19120000Y-12930000D02*
X19080000Y-12970000D01*
D14*
X10174600Y-11010200D02*
G75*
G03*
X10174600Y-11010200I-40000J0D01*
G01*
X10174600Y-11260200D02*
G75*
G03*
X10174600Y-11260200I-40000J0D01*
G01*
X10174600Y-11510200D02*
G75*
G03*
X10174600Y-11510200I-40000J0D01*
G01*
X10174600Y-11760200D02*
G75*
G03*
X10174600Y-11760200I-40000J0D01*
G01*
X10174600Y-12010200D02*
G75*
G03*
X10174600Y-12010200I-40000J0D01*
G01*
X10174600Y-12260200D02*
G75*
G03*
X10174600Y-12260200I-40000J0D01*
G01*
X10174600Y-12510200D02*
G75*
G03*
X10174600Y-12510200I-40000J0D01*
G01*
X10339600Y-11135200D02*
G75*
G03*
X10339600Y-11135200I-40000J0D01*
G01*
X10339600Y-11385200D02*
G75*
G03*
X10339600Y-11385200I-40000J0D01*
G01*
X10339600Y-11635200D02*
G75*
G03*
X10339600Y-11635200I-40000J0D01*
G01*
X10339600Y-11885200D02*
G75*
G03*
X10339600Y-11885200I-40000J0D01*
G01*
X10339600Y-12135200D02*
G75*
G03*
X10339600Y-12135200I-40000J0D01*
G01*
X10339600Y-12385200D02*
G75*
G03*
X10339600Y-12385200I-40000J0D01*
G01*
X10491400Y-13677900D02*
G75*
G03*
X10491400Y-13677900I-40000J0D01*
G01*
X10492100Y-6704900D02*
G75*
G03*
X10492100Y-6704900I-40000J0D01*
G01*
X10492100Y-6954900D02*
G75*
G03*
X10492100Y-6954900I-40000J0D01*
G01*
X10492100Y-7204900D02*
G75*
G03*
X10492100Y-7204900I-40000J0D01*
G01*
X10492100Y-7454900D02*
G75*
G03*
X10492100Y-7454900I-40000J0D01*
G01*
X10492100Y-7704900D02*
G75*
G03*
X10492100Y-7704900I-40000J0D01*
G01*
X10492100Y-7954900D02*
G75*
G03*
X10492100Y-7954900I-40000J0D01*
G01*
X10492100Y-8204900D02*
G75*
G03*
X10492100Y-8204900I-40000J0D01*
G01*
X10616400Y-13512900D02*
G75*
G03*
X10616400Y-13512900I-40000J0D01*
G01*
X10657100Y-6829900D02*
G75*
G03*
X10657100Y-6829900I-40000J0D01*
G01*
X10657100Y-7079900D02*
G75*
G03*
X10657100Y-7079900I-40000J0D01*
G01*
X10657100Y-7329900D02*
G75*
G03*
X10657100Y-7329900I-40000J0D01*
G01*
X10657100Y-7579900D02*
G75*
G03*
X10657100Y-7579900I-40000J0D01*
G01*
X10657100Y-7829900D02*
G75*
G03*
X10657100Y-7829900I-40000J0D01*
G01*
X10657100Y-8079900D02*
G75*
G03*
X10657100Y-8079900I-40000J0D01*
G01*
X10741400Y-13677900D02*
G75*
G03*
X10741400Y-13677900I-40000J0D01*
G01*
X10866400Y-13512900D02*
G75*
G03*
X10866400Y-13512900I-40000J0D01*
G01*
X10991400Y-13677900D02*
G75*
G03*
X10991400Y-13677900I-40000J0D01*
G01*
X11116400Y-13512900D02*
G75*
G03*
X11116400Y-13512900I-40000J0D01*
G01*
X11241400Y-13677900D02*
G75*
G03*
X11241400Y-13677900I-40000J0D01*
G01*
X11366400Y-13512900D02*
G75*
G03*
X11366400Y-13512900I-40000J0D01*
G01*
X11491400Y-13677900D02*
G75*
G03*
X11491400Y-13677900I-40000J0D01*
G01*
X11616400Y-13512900D02*
G75*
G03*
X11616400Y-13512900I-40000J0D01*
G01*
X11741400Y-13677900D02*
G75*
G03*
X11741400Y-13677900I-40000J0D01*
G01*
X11866400Y-13512900D02*
G75*
G03*
X11866400Y-13512900I-40000J0D01*
G01*
X11991400Y-13677900D02*
G75*
G03*
X11991400Y-13677900I-40000J0D01*
G01*
X17755800Y-13690600D02*
G75*
G03*
X17755800Y-13690600I-40000J0D01*
G01*
X17880800Y-13525600D02*
G75*
G03*
X17880800Y-13525600I-40000J0D01*
G01*
X18005800Y-13690600D02*
G75*
G03*
X18005800Y-13690600I-40000J0D01*
G01*
X18130800Y-13525600D02*
G75*
G03*
X18130800Y-13525600I-40000J0D01*
G01*
X18255800Y-13690600D02*
G75*
G03*
X18255800Y-13690600I-40000J0D01*
G01*
X18380800Y-13525600D02*
G75*
G03*
X18380800Y-13525600I-40000J0D01*
G01*
X18505800Y-13690600D02*
G75*
G03*
X18505800Y-13690600I-40000J0D01*
G01*
X18630800Y-13525600D02*
G75*
G03*
X18630800Y-13525600I-40000J0D01*
G01*
X18755800Y-13690600D02*
G75*
G03*
X18755800Y-13690600I-40000J0D01*
G01*
X18880800Y-13525600D02*
G75*
G03*
X18880800Y-13525600I-40000J0D01*
G01*
X19005800Y-13690600D02*
G75*
G03*
X19005800Y-13690600I-40000J0D01*
G01*
X19128200Y-6982300D02*
G75*
G03*
X19128200Y-6982300I-40000J0D01*
G01*
X19128200Y-7232300D02*
G75*
G03*
X19128200Y-7232300I-40000J0D01*
G01*
X19128200Y-7482300D02*
G75*
G03*
X19128200Y-7482300I-40000J0D01*
G01*
X19128200Y-7732300D02*
G75*
G03*
X19128200Y-7732300I-40000J0D01*
G01*
X19128200Y-7982300D02*
G75*
G03*
X19128200Y-7982300I-40000J0D01*
G01*
X19128200Y-8232300D02*
G75*
G03*
X19128200Y-8232300I-40000J0D01*
G01*
X19130800Y-13525600D02*
G75*
G03*
X19130800Y-13525600I-40000J0D01*
G01*
X19255800Y-13690600D02*
G75*
G03*
X19255800Y-13690600I-40000J0D01*
G01*
X19293200Y-6857300D02*
G75*
G03*
X19293200Y-6857300I-40000J0D01*
G01*
X19293200Y-7107300D02*
G75*
G03*
X19293200Y-7107300I-40000J0D01*
G01*
X19293200Y-7357300D02*
G75*
G03*
X19293200Y-7357300I-40000J0D01*
G01*
X19293200Y-7607300D02*
G75*
G03*
X19293200Y-7607300I-40000J0D01*
G01*
X19293200Y-7857300D02*
G75*
G03*
X19293200Y-7857300I-40000J0D01*
G01*
X19293200Y-8107300D02*
G75*
G03*
X19293200Y-8107300I-40000J0D01*
G01*
X19293200Y-8357300D02*
G75*
G03*
X19293200Y-8357300I-40000J0D01*
G01*
X19483800Y-11186000D02*
G75*
G03*
X19483800Y-11186000I-40000J0D01*
G01*
X19483800Y-11436000D02*
G75*
G03*
X19483800Y-11436000I-40000J0D01*
G01*
X19483800Y-11686000D02*
G75*
G03*
X19483800Y-11686000I-40000J0D01*
G01*
X19483800Y-11936000D02*
G75*
G03*
X19483800Y-11936000I-40000J0D01*
G01*
X19483800Y-12186000D02*
G75*
G03*
X19483800Y-12186000I-40000J0D01*
G01*
X19483800Y-12436000D02*
G75*
G03*
X19483800Y-12436000I-40000J0D01*
G01*
X19648800Y-11061000D02*
G75*
G03*
X19648800Y-11061000I-40000J0D01*
G01*
X19648800Y-11311000D02*
G75*
G03*
X19648800Y-11311000I-40000J0D01*
G01*
X19648800Y-11561000D02*
G75*
G03*
X19648800Y-11561000I-40000J0D01*
G01*
X19648800Y-11811000D02*
G75*
G03*
X19648800Y-11811000I-40000J0D01*
G01*
X19648800Y-12061000D02*
G75*
G03*
X19648800Y-12061000I-40000J0D01*
G01*
X19648800Y-12311000D02*
G75*
G03*
X19648800Y-12311000I-40000J0D01*
G01*
X19648800Y-12561000D02*
G75*
G03*
X19648800Y-12561000I-40000J0D01*
G01*
D15*
X10058400Y-14059700D02*
X10058400Y-14159700D01*
X10008400Y-14109700D02*
X10108400Y-14109700D01*
X10312400Y-14059700D02*
X10312400Y-14159700D01*
X10262400Y-14109700D02*
X10362400Y-14109700D01*
X10566400Y-14059700D02*
X10566400Y-14159700D01*
X10516400Y-14109700D02*
X10616400Y-14109700D01*
X10820400Y-14059700D02*
X10820400Y-14159700D01*
X10770400Y-14109700D02*
X10870400Y-14109700D01*
X11074400Y-14059700D02*
X11074400Y-14159700D01*
X11024400Y-14109700D02*
X11124400Y-14109700D01*
X11328400Y-14059700D02*
X11328400Y-14159700D01*
X11278400Y-14109700D02*
X11378400Y-14109700D01*
X11582400Y-14059700D02*
X11582400Y-14159700D01*
X11532400Y-14109700D02*
X11632400Y-14109700D01*
X11836400Y-14059700D02*
X11836400Y-14159700D01*
X11786400Y-14109700D02*
X11886400Y-14109700D01*
X12037000Y-9438000D02*
X12037000Y-9538000D01*
X11987000Y-9488000D02*
X12087000Y-9488000D01*
X12037000Y-10962000D02*
X12037000Y-11062000D01*
X11987000Y-11012000D02*
X12087000Y-11012000D01*
X12090400Y-14059700D02*
X12090400Y-14159700D01*
X12040400Y-14109700D02*
X12140400Y-14109700D01*
X12291000Y-9438000D02*
X12291000Y-9538000D01*
X12241000Y-9488000D02*
X12341000Y-9488000D01*
X12291000Y-10962000D02*
X12291000Y-11062000D01*
X12241000Y-11012000D02*
X12341000Y-11012000D01*
X12344400Y-14059700D02*
X12344400Y-14159700D01*
X12294400Y-14109700D02*
X12394400Y-14109700D01*
X12418100Y-9818800D02*
X12418100Y-9918800D01*
X12368100Y-9868800D02*
X12468100Y-9868800D01*
X12418100Y-10072800D02*
X12418100Y-10172800D01*
X12368100Y-10122800D02*
X12468100Y-10122800D01*
X12418100Y-10326800D02*
X12418100Y-10426800D01*
X12368100Y-10376800D02*
X12468100Y-10376800D01*
X12418100Y-10580800D02*
X12418100Y-10680800D01*
X12368100Y-10630800D02*
X12468100Y-10630800D01*
X12545000Y-9438000D02*
X12545000Y-9538000D01*
X12495000Y-9488000D02*
X12595000Y-9488000D01*
X12545000Y-10962000D02*
X12545000Y-11062000D01*
X12495000Y-11012000D02*
X12595000Y-11012000D01*
X12799000Y-9438000D02*
X12799000Y-9538000D01*
X12749000Y-9488000D02*
X12849000Y-9488000D01*
X12799000Y-10962000D02*
X12799000Y-11062000D01*
X12749000Y-11012000D02*
X12849000Y-11012000D01*
X13053000Y-9438000D02*
X13053000Y-9538000D01*
X13003000Y-9488000D02*
X13103000Y-9488000D01*
X13053000Y-10962000D02*
X13053000Y-11062000D01*
X13003000Y-11012000D02*
X13103000Y-11012000D01*
X13307000Y-9438000D02*
X13307000Y-9538000D01*
X13257000Y-9488000D02*
X13357000Y-9488000D01*
X13307000Y-10962000D02*
X13307000Y-11062000D01*
X13257000Y-11012000D02*
X13357000Y-11012000D01*
X13561000Y-9438000D02*
X13561000Y-9538000D01*
X13511000Y-9488000D02*
X13611000Y-9488000D01*
X13561000Y-10962000D02*
X13561000Y-11062000D01*
X13511000Y-11012000D02*
X13611000Y-11012000D01*
X13815000Y-9438000D02*
X13815000Y-9538000D01*
X13765000Y-9488000D02*
X13865000Y-9488000D01*
X13815000Y-10962000D02*
X13815000Y-11062000D01*
X13765000Y-11012000D02*
X13865000Y-11012000D01*
X14069000Y-9438000D02*
X14069000Y-9538000D01*
X14019000Y-9488000D02*
X14119000Y-9488000D01*
X14069000Y-10962000D02*
X14069000Y-11062000D01*
X14019000Y-11012000D02*
X14119000Y-11012000D01*
X14323000Y-9438000D02*
X14323000Y-9538000D01*
X14273000Y-9488000D02*
X14373000Y-9488000D01*
X14323000Y-10962000D02*
X14323000Y-11062000D01*
X14273000Y-11012000D02*
X14373000Y-11012000D01*
X14577000Y-9438000D02*
X14577000Y-9538000D01*
X14527000Y-9488000D02*
X14627000Y-9488000D01*
X14577000Y-10962000D02*
X14577000Y-11062000D01*
X14527000Y-11012000D02*
X14627000Y-11012000D01*
X14831000Y-9438000D02*
X14831000Y-9538000D01*
X14781000Y-9488000D02*
X14881000Y-9488000D01*
X14831000Y-10962000D02*
X14831000Y-11062000D01*
X14781000Y-11012000D02*
X14881000Y-11012000D01*
X15085000Y-9438000D02*
X15085000Y-9538000D01*
X15035000Y-9488000D02*
X15135000Y-9488000D01*
X15085000Y-10962000D02*
X15085000Y-11062000D01*
X15035000Y-11012000D02*
X15135000Y-11012000D01*
X15339000Y-9438000D02*
X15339000Y-9538000D01*
X15289000Y-9488000D02*
X15389000Y-9488000D01*
X15339000Y-10962000D02*
X15339000Y-11062000D01*
X15289000Y-11012000D02*
X15389000Y-11012000D01*
X15593000Y-9438000D02*
X15593000Y-9538000D01*
X15543000Y-9488000D02*
X15643000Y-9488000D01*
X15593000Y-10962000D02*
X15593000Y-11062000D01*
X15543000Y-11012000D02*
X15643000Y-11012000D01*
X15847000Y-9438000D02*
X15847000Y-9538000D01*
X15797000Y-9488000D02*
X15897000Y-9488000D01*
X15847000Y-10962000D02*
X15847000Y-11062000D01*
X15797000Y-11012000D02*
X15897000Y-11012000D01*
X16101000Y-9438000D02*
X16101000Y-9538000D01*
X16051000Y-9488000D02*
X16151000Y-9488000D01*
X16101000Y-10962000D02*
X16101000Y-11062000D01*
X16051000Y-11012000D02*
X16151000Y-11012000D01*
X16355000Y-9438000D02*
X16355000Y-9538000D01*
X16305000Y-9488000D02*
X16405000Y-9488000D01*
X16355000Y-10962000D02*
X16355000Y-11062000D01*
X16305000Y-11012000D02*
X16405000Y-11012000D01*
X16609000Y-9438000D02*
X16609000Y-9538000D01*
X16559000Y-9488000D02*
X16659000Y-9488000D01*
X16609000Y-10962000D02*
X16609000Y-11062000D01*
X16559000Y-11012000D02*
X16659000Y-11012000D01*
X16863000Y-9438000D02*
X16863000Y-9538000D01*
X16813000Y-9488000D02*
X16913000Y-9488000D01*
X16863000Y-10962000D02*
X16863000Y-11062000D01*
X16813000Y-11012000D02*
X16913000Y-11012000D01*
X17399500Y-14072400D02*
X17399500Y-14172400D01*
X17349500Y-14122400D02*
X17449500Y-14122400D01*
X17653500Y-14072400D02*
X17653500Y-14172400D01*
X17603500Y-14122400D02*
X17703500Y-14122400D01*
X17907500Y-14072400D02*
X17907500Y-14172400D01*
X17857500Y-14122400D02*
X17957500Y-14122400D01*
X18161500Y-14072400D02*
X18161500Y-14172400D01*
X18111500Y-14122400D02*
X18211500Y-14122400D01*
X18415500Y-14072400D02*
X18415500Y-14172400D01*
X18365500Y-14122400D02*
X18465500Y-14122400D01*
X18669500Y-14072400D02*
X18669500Y-14172400D01*
X18619500Y-14122400D02*
X18719500Y-14122400D01*
X18923500Y-14072400D02*
X18923500Y-14172400D01*
X18873500Y-14122400D02*
X18973500Y-14122400D01*
X19177500Y-14072400D02*
X19177500Y-14172400D01*
X19127500Y-14122400D02*
X19227500Y-14122400D01*
X19431500Y-14072400D02*
X19431500Y-14172400D01*
X19381500Y-14122400D02*
X19481500Y-14122400D01*
X19685500Y-14072400D02*
X19685500Y-14172400D01*
X19635500Y-14122400D02*
X19735500Y-14122400D01*
D16*
X15002139Y-11952389D02*
X15002139Y-11648331D01*
X14698081Y-11648331D01*
X14698081Y-11952389D01*
X15002139Y-11952389D01*
D12*
X10130119Y-15113336D02*
X10130119Y-14913336D01*
X10177738Y-14913336D01*
X10206310Y-14922860D01*
X10225357Y-14941908D01*
X10234881Y-14960955D01*
X10244405Y-14999050D01*
X10244405Y-15027622D01*
X10234881Y-15065717D01*
X10225357Y-15084765D01*
X10206310Y-15103812D01*
X10177738Y-15113336D01*
X10130119Y-15113336D01*
X10330119Y-15113336D02*
X10330119Y-14980003D01*
X10330119Y-15018098D02*
X10339643Y-14999050D01*
X10349167Y-14989527D01*
X10368214Y-14980003D01*
X10387262Y-14980003D01*
X10453929Y-15113336D02*
X10453929Y-14980003D01*
X10453929Y-14913336D02*
X10444405Y-14922860D01*
X10453929Y-14932384D01*
X10463452Y-14922860D01*
X10453929Y-14913336D01*
X10453929Y-14932384D01*
X10577738Y-15113336D02*
X10558690Y-15103812D01*
X10549167Y-15084765D01*
X10549167Y-14913336D01*
X10682500Y-15113336D02*
X10663452Y-15103812D01*
X10653929Y-15084765D01*
X10653929Y-14913336D01*
X10911071Y-15113336D02*
X10911071Y-14913336D01*
X10977738Y-15056193D01*
X11044405Y-14913336D01*
X11044405Y-15113336D01*
X11225357Y-15113336D02*
X11225357Y-15008574D01*
X11215833Y-14989527D01*
X11196786Y-14980003D01*
X11158690Y-14980003D01*
X11139643Y-14989527D01*
X11225357Y-15103812D02*
X11206309Y-15113336D01*
X11158690Y-15113336D01*
X11139643Y-15103812D01*
X11130119Y-15084765D01*
X11130119Y-15065717D01*
X11139643Y-15046669D01*
X11158690Y-15037146D01*
X11206309Y-15037146D01*
X11225357Y-15027622D01*
X11320595Y-14980003D02*
X11320595Y-15180003D01*
X11320595Y-14989527D02*
X11339643Y-14980003D01*
X11377738Y-14980003D01*
X11396786Y-14989527D01*
X11406309Y-14999050D01*
X11415833Y-15018098D01*
X11415833Y-15075241D01*
X11406309Y-15094288D01*
X11396786Y-15103812D01*
X11377738Y-15113336D01*
X11339643Y-15113336D01*
X11320595Y-15103812D01*
X11501548Y-15094288D02*
X11511071Y-15103812D01*
X11501548Y-15113336D01*
X11492024Y-15103812D01*
X11501548Y-15094288D01*
X11501548Y-15113336D01*
X11501548Y-14989527D02*
X11511071Y-14999050D01*
X11501548Y-15008574D01*
X11492024Y-14999050D01*
X11501548Y-14989527D01*
X11501548Y-15008574D01*
D13*
X9832500Y-15422860D02*
X9872500Y-15462860D01*
X9872500Y-15422860D02*
X9832500Y-15462860D01*
D12*
X10168214Y-15333336D02*
X10187262Y-15333336D01*
X10206310Y-15342860D01*
X10215833Y-15352384D01*
X10225357Y-15371431D01*
X10234881Y-15409527D01*
X10234881Y-15457146D01*
X10225357Y-15495241D01*
X10215833Y-15514288D01*
X10206310Y-15523812D01*
X10187262Y-15533336D01*
X10168214Y-15533336D01*
X10149167Y-15523812D01*
X10139643Y-15514288D01*
X10130119Y-15495241D01*
X10120595Y-15457146D01*
X10120595Y-15409527D01*
X10130119Y-15371431D01*
X10139643Y-15352384D01*
X10149167Y-15342860D01*
X10168214Y-15333336D01*
X10320595Y-15514288D02*
X10330119Y-15523812D01*
X10320595Y-15533336D01*
X10311071Y-15523812D01*
X10320595Y-15514288D01*
X10320595Y-15533336D01*
X10501548Y-15400003D02*
X10501548Y-15533336D01*
X10453929Y-15323812D02*
X10406310Y-15466669D01*
X10530119Y-15466669D01*
X10644405Y-15333336D02*
X10663452Y-15333336D01*
X10682500Y-15342860D01*
X10692024Y-15352384D01*
X10701548Y-15371431D01*
X10711071Y-15409527D01*
X10711071Y-15457146D01*
X10701548Y-15495241D01*
X10692024Y-15514288D01*
X10682500Y-15523812D01*
X10663452Y-15533336D01*
X10644405Y-15533336D01*
X10625357Y-15523812D01*
X10615833Y-15514288D01*
X10606310Y-15495241D01*
X10596786Y-15457146D01*
X10596786Y-15409527D01*
X10606310Y-15371431D01*
X10615833Y-15352384D01*
X10625357Y-15342860D01*
X10644405Y-15333336D01*
X10834881Y-15333336D02*
X10853929Y-15333336D01*
X10872976Y-15342860D01*
X10882500Y-15352384D01*
X10892024Y-15371431D01*
X10901548Y-15409527D01*
X10901548Y-15457146D01*
X10892024Y-15495241D01*
X10882500Y-15514288D01*
X10872976Y-15523812D01*
X10853929Y-15533336D01*
X10834881Y-15533336D01*
X10815833Y-15523812D01*
X10806310Y-15514288D01*
X10796786Y-15495241D01*
X10787262Y-15457146D01*
X10787262Y-15409527D01*
X10796786Y-15371431D01*
X10806310Y-15352384D01*
X10815833Y-15342860D01*
X10834881Y-15333336D01*
X10987262Y-15533336D02*
X10987262Y-15400003D01*
X10987262Y-15419050D02*
X10996786Y-15409527D01*
X11015833Y-15400003D01*
X11044405Y-15400003D01*
X11063452Y-15409527D01*
X11072976Y-15428574D01*
X11072976Y-15533336D01*
X11072976Y-15428574D02*
X11082500Y-15409527D01*
X11101548Y-15400003D01*
X11130119Y-15400003D01*
X11149167Y-15409527D01*
X11158690Y-15428574D01*
X11158690Y-15533336D01*
X11253928Y-15533336D02*
X11253928Y-15400003D01*
X11253928Y-15419050D02*
X11263452Y-15409527D01*
X11282500Y-15400003D01*
X11311071Y-15400003D01*
X11330119Y-15409527D01*
X11339643Y-15428574D01*
X11339643Y-15533336D01*
X11339643Y-15428574D02*
X11349167Y-15409527D01*
X11368214Y-15400003D01*
X11396786Y-15400003D01*
X11415833Y-15409527D01*
X11425357Y-15428574D01*
X11425357Y-15533336D01*
X11815833Y-15323812D02*
X11644405Y-15580955D01*
X12072976Y-15333336D02*
X12092024Y-15333336D01*
X12111071Y-15342860D01*
X12120595Y-15352384D01*
X12130119Y-15371431D01*
X12139643Y-15409527D01*
X12139643Y-15457146D01*
X12130119Y-15495241D01*
X12120595Y-15514288D01*
X12111071Y-15523812D01*
X12092024Y-15533336D01*
X12072976Y-15533336D01*
X12053928Y-15523812D01*
X12044405Y-15514288D01*
X12034881Y-15495241D01*
X12025357Y-15457146D01*
X12025357Y-15409527D01*
X12034881Y-15371431D01*
X12044405Y-15352384D01*
X12053928Y-15342860D01*
X12072976Y-15333336D01*
X12225357Y-15514288D02*
X12234881Y-15523812D01*
X12225357Y-15533336D01*
X12215833Y-15523812D01*
X12225357Y-15514288D01*
X12225357Y-15533336D01*
X12358690Y-15333336D02*
X12377738Y-15333336D01*
X12396786Y-15342860D01*
X12406309Y-15352384D01*
X12415833Y-15371431D01*
X12425357Y-15409527D01*
X12425357Y-15457146D01*
X12415833Y-15495241D01*
X12406309Y-15514288D01*
X12396786Y-15523812D01*
X12377738Y-15533336D01*
X12358690Y-15533336D01*
X12339643Y-15523812D01*
X12330119Y-15514288D01*
X12320595Y-15495241D01*
X12311071Y-15457146D01*
X12311071Y-15409527D01*
X12320595Y-15371431D01*
X12330119Y-15352384D01*
X12339643Y-15342860D01*
X12358690Y-15333336D01*
X12615833Y-15533336D02*
X12501548Y-15533336D01*
X12558690Y-15533336D02*
X12558690Y-15333336D01*
X12539643Y-15361908D01*
X12520595Y-15380955D01*
X12501548Y-15390479D01*
X12796786Y-15333336D02*
X12701548Y-15333336D01*
X12692024Y-15428574D01*
X12701548Y-15419050D01*
X12720595Y-15409527D01*
X12768214Y-15409527D01*
X12787262Y-15419050D01*
X12796786Y-15428574D01*
X12806309Y-15447622D01*
X12806309Y-15495241D01*
X12796786Y-15514288D01*
X12787262Y-15523812D01*
X12768214Y-15533336D01*
X12720595Y-15533336D01*
X12701548Y-15523812D01*
X12692024Y-15514288D01*
X12872976Y-15333336D02*
X13006309Y-15333336D01*
X12920595Y-15533336D01*
X13072976Y-15333336D02*
X13072976Y-15371431D01*
X13149167Y-15333336D02*
X13149167Y-15371431D01*
X13444405Y-15609527D02*
X13434881Y-15600003D01*
X13415833Y-15571431D01*
X13406309Y-15552384D01*
X13396786Y-15523812D01*
X13387262Y-15476193D01*
X13387262Y-15438098D01*
X13396786Y-15390479D01*
X13406309Y-15361908D01*
X13415833Y-15342860D01*
X13434881Y-15314288D01*
X13444405Y-15304765D01*
X13625357Y-15533336D02*
X13511071Y-15533336D01*
X13568214Y-15533336D02*
X13568214Y-15333336D01*
X13549167Y-15361908D01*
X13530119Y-15380955D01*
X13511071Y-15390479D01*
X13806309Y-15333336D02*
X13711071Y-15333336D01*
X13701548Y-15428574D01*
X13711071Y-15419050D01*
X13730119Y-15409527D01*
X13777738Y-15409527D01*
X13796786Y-15419050D01*
X13806309Y-15428574D01*
X13815833Y-15447622D01*
X13815833Y-15495241D01*
X13806309Y-15514288D01*
X13796786Y-15523812D01*
X13777738Y-15533336D01*
X13730119Y-15533336D01*
X13711071Y-15523812D01*
X13701548Y-15514288D01*
X14053928Y-15533336D02*
X14053928Y-15333336D01*
X14139643Y-15533336D02*
X14139643Y-15428574D01*
X14130119Y-15409527D01*
X14111071Y-15400003D01*
X14082500Y-15400003D01*
X14063452Y-15409527D01*
X14053928Y-15419050D01*
X14263452Y-15533336D02*
X14244405Y-15523812D01*
X14234881Y-15514288D01*
X14225357Y-15495241D01*
X14225357Y-15438098D01*
X14234881Y-15419050D01*
X14244405Y-15409527D01*
X14263452Y-15400003D01*
X14292024Y-15400003D01*
X14311071Y-15409527D01*
X14320595Y-15419050D01*
X14330119Y-15438098D01*
X14330119Y-15495241D01*
X14320595Y-15514288D01*
X14311071Y-15523812D01*
X14292024Y-15533336D01*
X14263452Y-15533336D01*
X14444405Y-15533336D02*
X14425357Y-15523812D01*
X14415833Y-15504765D01*
X14415833Y-15333336D01*
X14596786Y-15523812D02*
X14577738Y-15533336D01*
X14539643Y-15533336D01*
X14520595Y-15523812D01*
X14511071Y-15504765D01*
X14511071Y-15428574D01*
X14520595Y-15409527D01*
X14539643Y-15400003D01*
X14577738Y-15400003D01*
X14596786Y-15409527D01*
X14606309Y-15428574D01*
X14606309Y-15447622D01*
X14511071Y-15466669D01*
X14682500Y-15523812D02*
X14701548Y-15533336D01*
X14739643Y-15533336D01*
X14758690Y-15523812D01*
X14768214Y-15504765D01*
X14768214Y-15495241D01*
X14758690Y-15476193D01*
X14739643Y-15466669D01*
X14711071Y-15466669D01*
X14692024Y-15457146D01*
X14682500Y-15438098D01*
X14682500Y-15428574D01*
X14692024Y-15409527D01*
X14711071Y-15400003D01*
X14739643Y-15400003D01*
X14758690Y-15409527D01*
X14834881Y-15609527D02*
X14844405Y-15600003D01*
X14863452Y-15571431D01*
X14872976Y-15552384D01*
X14882500Y-15523812D01*
X14892024Y-15476193D01*
X14892024Y-15438098D01*
X14882500Y-15390479D01*
X14872976Y-15361908D01*
X14863452Y-15342860D01*
X14844405Y-15314288D01*
X14834881Y-15304765D01*
D14*
X9872500Y-15706860D02*
G75*
G03*
X9872500Y-15706860I-40000J0D01*
G01*
D12*
X10168214Y-15597336D02*
X10187262Y-15597336D01*
X10206310Y-15606860D01*
X10215833Y-15616384D01*
X10225357Y-15635431D01*
X10234881Y-15673527D01*
X10234881Y-15721146D01*
X10225357Y-15759241D01*
X10215833Y-15778288D01*
X10206310Y-15787812D01*
X10187262Y-15797336D01*
X10168214Y-15797336D01*
X10149167Y-15787812D01*
X10139643Y-15778288D01*
X10130119Y-15759241D01*
X10120595Y-15721146D01*
X10120595Y-15673527D01*
X10130119Y-15635431D01*
X10139643Y-15616384D01*
X10149167Y-15606860D01*
X10168214Y-15597336D01*
X10320595Y-15778288D02*
X10330119Y-15787812D01*
X10320595Y-15797336D01*
X10311071Y-15787812D01*
X10320595Y-15778288D01*
X10320595Y-15797336D01*
X10444405Y-15683050D02*
X10425357Y-15673527D01*
X10415833Y-15664003D01*
X10406310Y-15644955D01*
X10406310Y-15635431D01*
X10415833Y-15616384D01*
X10425357Y-15606860D01*
X10444405Y-15597336D01*
X10482500Y-15597336D01*
X10501548Y-15606860D01*
X10511071Y-15616384D01*
X10520595Y-15635431D01*
X10520595Y-15644955D01*
X10511071Y-15664003D01*
X10501548Y-15673527D01*
X10482500Y-15683050D01*
X10444405Y-15683050D01*
X10425357Y-15692574D01*
X10415833Y-15702098D01*
X10406310Y-15721146D01*
X10406310Y-15759241D01*
X10415833Y-15778288D01*
X10425357Y-15787812D01*
X10444405Y-15797336D01*
X10482500Y-15797336D01*
X10501548Y-15787812D01*
X10511071Y-15778288D01*
X10520595Y-15759241D01*
X10520595Y-15721146D01*
X10511071Y-15702098D01*
X10501548Y-15692574D01*
X10482500Y-15683050D01*
X10644405Y-15597336D02*
X10663452Y-15597336D01*
X10682500Y-15606860D01*
X10692024Y-15616384D01*
X10701548Y-15635431D01*
X10711071Y-15673527D01*
X10711071Y-15721146D01*
X10701548Y-15759241D01*
X10692024Y-15778288D01*
X10682500Y-15787812D01*
X10663452Y-15797336D01*
X10644405Y-15797336D01*
X10625357Y-15787812D01*
X10615833Y-15778288D01*
X10606310Y-15759241D01*
X10596786Y-15721146D01*
X10596786Y-15673527D01*
X10606310Y-15635431D01*
X10615833Y-15616384D01*
X10625357Y-15606860D01*
X10644405Y-15597336D01*
X10834881Y-15597336D02*
X10853929Y-15597336D01*
X10872976Y-15606860D01*
X10882500Y-15616384D01*
X10892024Y-15635431D01*
X10901548Y-15673527D01*
X10901548Y-15721146D01*
X10892024Y-15759241D01*
X10882500Y-15778288D01*
X10872976Y-15787812D01*
X10853929Y-15797336D01*
X10834881Y-15797336D01*
X10815833Y-15787812D01*
X10806310Y-15778288D01*
X10796786Y-15759241D01*
X10787262Y-15721146D01*
X10787262Y-15673527D01*
X10796786Y-15635431D01*
X10806310Y-15616384D01*
X10815833Y-15606860D01*
X10834881Y-15597336D01*
X10987262Y-15797336D02*
X10987262Y-15664003D01*
X10987262Y-15683050D02*
X10996786Y-15673527D01*
X11015833Y-15664003D01*
X11044405Y-15664003D01*
X11063452Y-15673527D01*
X11072976Y-15692574D01*
X11072976Y-15797336D01*
X11072976Y-15692574D02*
X11082500Y-15673527D01*
X11101548Y-15664003D01*
X11130119Y-15664003D01*
X11149167Y-15673527D01*
X11158690Y-15692574D01*
X11158690Y-15797336D01*
X11253928Y-15797336D02*
X11253928Y-15664003D01*
X11253928Y-15683050D02*
X11263452Y-15673527D01*
X11282500Y-15664003D01*
X11311071Y-15664003D01*
X11330119Y-15673527D01*
X11339643Y-15692574D01*
X11339643Y-15797336D01*
X11339643Y-15692574D02*
X11349167Y-15673527D01*
X11368214Y-15664003D01*
X11396786Y-15664003D01*
X11415833Y-15673527D01*
X11425357Y-15692574D01*
X11425357Y-15797336D01*
X11815833Y-15587812D02*
X11644405Y-15844955D01*
X12072976Y-15597336D02*
X12092024Y-15597336D01*
X12111071Y-15606860D01*
X12120595Y-15616384D01*
X12130119Y-15635431D01*
X12139643Y-15673527D01*
X12139643Y-15721146D01*
X12130119Y-15759241D01*
X12120595Y-15778288D01*
X12111071Y-15787812D01*
X12092024Y-15797336D01*
X12072976Y-15797336D01*
X12053928Y-15787812D01*
X12044405Y-15778288D01*
X12034881Y-15759241D01*
X12025357Y-15721146D01*
X12025357Y-15673527D01*
X12034881Y-15635431D01*
X12044405Y-15616384D01*
X12053928Y-15606860D01*
X12072976Y-15597336D01*
X12225357Y-15778288D02*
X12234881Y-15787812D01*
X12225357Y-15797336D01*
X12215833Y-15787812D01*
X12225357Y-15778288D01*
X12225357Y-15797336D01*
X12358690Y-15597336D02*
X12377738Y-15597336D01*
X12396786Y-15606860D01*
X12406309Y-15616384D01*
X12415833Y-15635431D01*
X12425357Y-15673527D01*
X12425357Y-15721146D01*
X12415833Y-15759241D01*
X12406309Y-15778288D01*
X12396786Y-15787812D01*
X12377738Y-15797336D01*
X12358690Y-15797336D01*
X12339643Y-15787812D01*
X12330119Y-15778288D01*
X12320595Y-15759241D01*
X12311071Y-15721146D01*
X12311071Y-15673527D01*
X12320595Y-15635431D01*
X12330119Y-15616384D01*
X12339643Y-15606860D01*
X12358690Y-15597336D01*
X12492024Y-15597336D02*
X12615833Y-15597336D01*
X12549167Y-15673527D01*
X12577738Y-15673527D01*
X12596786Y-15683050D01*
X12606309Y-15692574D01*
X12615833Y-15711622D01*
X12615833Y-15759241D01*
X12606309Y-15778288D01*
X12596786Y-15787812D01*
X12577738Y-15797336D01*
X12520595Y-15797336D01*
X12501548Y-15787812D01*
X12492024Y-15778288D01*
X12806309Y-15797336D02*
X12692024Y-15797336D01*
X12749167Y-15797336D02*
X12749167Y-15597336D01*
X12730119Y-15625908D01*
X12711071Y-15644955D01*
X12692024Y-15654479D01*
X12987262Y-15597336D02*
X12892024Y-15597336D01*
X12882500Y-15692574D01*
X12892024Y-15683050D01*
X12911071Y-15673527D01*
X12958690Y-15673527D01*
X12977738Y-15683050D01*
X12987262Y-15692574D01*
X12996786Y-15711622D01*
X12996786Y-15759241D01*
X12987262Y-15778288D01*
X12977738Y-15787812D01*
X12958690Y-15797336D01*
X12911071Y-15797336D01*
X12892024Y-15787812D01*
X12882500Y-15778288D01*
X13072976Y-15597336D02*
X13072976Y-15635431D01*
X13149167Y-15597336D02*
X13149167Y-15635431D01*
X13444405Y-15873527D02*
X13434881Y-15864003D01*
X13415833Y-15835431D01*
X13406309Y-15816384D01*
X13396786Y-15787812D01*
X13387262Y-15740193D01*
X13387262Y-15702098D01*
X13396786Y-15654479D01*
X13406309Y-15625908D01*
X13415833Y-15606860D01*
X13434881Y-15578288D01*
X13444405Y-15568765D01*
X13501548Y-15597336D02*
X13634881Y-15597336D01*
X13549167Y-15797336D01*
X13739643Y-15683050D02*
X13720595Y-15673527D01*
X13711071Y-15664003D01*
X13701548Y-15644955D01*
X13701548Y-15635431D01*
X13711071Y-15616384D01*
X13720595Y-15606860D01*
X13739643Y-15597336D01*
X13777738Y-15597336D01*
X13796786Y-15606860D01*
X13806309Y-15616384D01*
X13815833Y-15635431D01*
X13815833Y-15644955D01*
X13806309Y-15664003D01*
X13796786Y-15673527D01*
X13777738Y-15683050D01*
X13739643Y-15683050D01*
X13720595Y-15692574D01*
X13711071Y-15702098D01*
X13701548Y-15721146D01*
X13701548Y-15759241D01*
X13711071Y-15778288D01*
X13720595Y-15787812D01*
X13739643Y-15797336D01*
X13777738Y-15797336D01*
X13796786Y-15787812D01*
X13806309Y-15778288D01*
X13815833Y-15759241D01*
X13815833Y-15721146D01*
X13806309Y-15702098D01*
X13796786Y-15692574D01*
X13777738Y-15683050D01*
X14053928Y-15797336D02*
X14053928Y-15597336D01*
X14139643Y-15797336D02*
X14139643Y-15692574D01*
X14130119Y-15673527D01*
X14111071Y-15664003D01*
X14082500Y-15664003D01*
X14063452Y-15673527D01*
X14053928Y-15683050D01*
X14263452Y-15797336D02*
X14244405Y-15787812D01*
X14234881Y-15778288D01*
X14225357Y-15759241D01*
X14225357Y-15702098D01*
X14234881Y-15683050D01*
X14244405Y-15673527D01*
X14263452Y-15664003D01*
X14292024Y-15664003D01*
X14311071Y-15673527D01*
X14320595Y-15683050D01*
X14330119Y-15702098D01*
X14330119Y-15759241D01*
X14320595Y-15778288D01*
X14311071Y-15787812D01*
X14292024Y-15797336D01*
X14263452Y-15797336D01*
X14444405Y-15797336D02*
X14425357Y-15787812D01*
X14415833Y-15768765D01*
X14415833Y-15597336D01*
X14596786Y-15787812D02*
X14577738Y-15797336D01*
X14539643Y-15797336D01*
X14520595Y-15787812D01*
X14511071Y-15768765D01*
X14511071Y-15692574D01*
X14520595Y-15673527D01*
X14539643Y-15664003D01*
X14577738Y-15664003D01*
X14596786Y-15673527D01*
X14606309Y-15692574D01*
X14606309Y-15711622D01*
X14511071Y-15730669D01*
X14682500Y-15787812D02*
X14701548Y-15797336D01*
X14739643Y-15797336D01*
X14758690Y-15787812D01*
X14768214Y-15768765D01*
X14768214Y-15759241D01*
X14758690Y-15740193D01*
X14739643Y-15730669D01*
X14711071Y-15730669D01*
X14692024Y-15721146D01*
X14682500Y-15702098D01*
X14682500Y-15692574D01*
X14692024Y-15673527D01*
X14711071Y-15664003D01*
X14739643Y-15664003D01*
X14758690Y-15673527D01*
X14834881Y-15873527D02*
X14844405Y-15864003D01*
X14863452Y-15835431D01*
X14872976Y-15816384D01*
X14882500Y-15787812D01*
X14892024Y-15740193D01*
X14892024Y-15702098D01*
X14882500Y-15654479D01*
X14872976Y-15625908D01*
X14863452Y-15606860D01*
X14844405Y-15578288D01*
X14834881Y-15568765D01*
D15*
X9822500Y-15920860D02*
X9822500Y-16020860D01*
X9772500Y-15970860D02*
X9872500Y-15970860D01*
D12*
X10234881Y-16061336D02*
X10120595Y-16061336D01*
X10177738Y-16061336D02*
X10177738Y-15861336D01*
X10158690Y-15889908D01*
X10139643Y-15908955D01*
X10120595Y-15918479D01*
X10320595Y-16042288D02*
X10330119Y-16051812D01*
X10320595Y-16061336D01*
X10311071Y-16051812D01*
X10320595Y-16042288D01*
X10320595Y-16061336D01*
X10453929Y-15861336D02*
X10472976Y-15861336D01*
X10492024Y-15870860D01*
X10501548Y-15880384D01*
X10511071Y-15899431D01*
X10520595Y-15937527D01*
X10520595Y-15985146D01*
X10511071Y-16023241D01*
X10501548Y-16042288D01*
X10492024Y-16051812D01*
X10472976Y-16061336D01*
X10453929Y-16061336D01*
X10434881Y-16051812D01*
X10425357Y-16042288D01*
X10415833Y-16023241D01*
X10406310Y-15985146D01*
X10406310Y-15937527D01*
X10415833Y-15899431D01*
X10425357Y-15880384D01*
X10434881Y-15870860D01*
X10453929Y-15861336D01*
X10644405Y-15861336D02*
X10663452Y-15861336D01*
X10682500Y-15870860D01*
X10692024Y-15880384D01*
X10701548Y-15899431D01*
X10711071Y-15937527D01*
X10711071Y-15985146D01*
X10701548Y-16023241D01*
X10692024Y-16042288D01*
X10682500Y-16051812D01*
X10663452Y-16061336D01*
X10644405Y-16061336D01*
X10625357Y-16051812D01*
X10615833Y-16042288D01*
X10606310Y-16023241D01*
X10596786Y-15985146D01*
X10596786Y-15937527D01*
X10606310Y-15899431D01*
X10615833Y-15880384D01*
X10625357Y-15870860D01*
X10644405Y-15861336D01*
X10834881Y-15861336D02*
X10853929Y-15861336D01*
X10872976Y-15870860D01*
X10882500Y-15880384D01*
X10892024Y-15899431D01*
X10901548Y-15937527D01*
X10901548Y-15985146D01*
X10892024Y-16023241D01*
X10882500Y-16042288D01*
X10872976Y-16051812D01*
X10853929Y-16061336D01*
X10834881Y-16061336D01*
X10815833Y-16051812D01*
X10806310Y-16042288D01*
X10796786Y-16023241D01*
X10787262Y-15985146D01*
X10787262Y-15937527D01*
X10796786Y-15899431D01*
X10806310Y-15880384D01*
X10815833Y-15870860D01*
X10834881Y-15861336D01*
X10987262Y-16061336D02*
X10987262Y-15928003D01*
X10987262Y-15947050D02*
X10996786Y-15937527D01*
X11015833Y-15928003D01*
X11044405Y-15928003D01*
X11063452Y-15937527D01*
X11072976Y-15956574D01*
X11072976Y-16061336D01*
X11072976Y-15956574D02*
X11082500Y-15937527D01*
X11101548Y-15928003D01*
X11130119Y-15928003D01*
X11149167Y-15937527D01*
X11158690Y-15956574D01*
X11158690Y-16061336D01*
X11253928Y-16061336D02*
X11253928Y-15928003D01*
X11253928Y-15947050D02*
X11263452Y-15937527D01*
X11282500Y-15928003D01*
X11311071Y-15928003D01*
X11330119Y-15937527D01*
X11339643Y-15956574D01*
X11339643Y-16061336D01*
X11339643Y-15956574D02*
X11349167Y-15937527D01*
X11368214Y-15928003D01*
X11396786Y-15928003D01*
X11415833Y-15937527D01*
X11425357Y-15956574D01*
X11425357Y-16061336D01*
X11815833Y-15851812D02*
X11644405Y-16108955D01*
X12072976Y-15861336D02*
X12092024Y-15861336D01*
X12111071Y-15870860D01*
X12120595Y-15880384D01*
X12130119Y-15899431D01*
X12139643Y-15937527D01*
X12139643Y-15985146D01*
X12130119Y-16023241D01*
X12120595Y-16042288D01*
X12111071Y-16051812D01*
X12092024Y-16061336D01*
X12072976Y-16061336D01*
X12053928Y-16051812D01*
X12044405Y-16042288D01*
X12034881Y-16023241D01*
X12025357Y-15985146D01*
X12025357Y-15937527D01*
X12034881Y-15899431D01*
X12044405Y-15880384D01*
X12053928Y-15870860D01*
X12072976Y-15861336D01*
X12225357Y-16042288D02*
X12234881Y-16051812D01*
X12225357Y-16061336D01*
X12215833Y-16051812D01*
X12225357Y-16042288D01*
X12225357Y-16061336D01*
X12358690Y-15861336D02*
X12377738Y-15861336D01*
X12396786Y-15870860D01*
X12406309Y-15880384D01*
X12415833Y-15899431D01*
X12425357Y-15937527D01*
X12425357Y-15985146D01*
X12415833Y-16023241D01*
X12406309Y-16042288D01*
X12396786Y-16051812D01*
X12377738Y-16061336D01*
X12358690Y-16061336D01*
X12339643Y-16051812D01*
X12330119Y-16042288D01*
X12320595Y-16023241D01*
X12311071Y-15985146D01*
X12311071Y-15937527D01*
X12320595Y-15899431D01*
X12330119Y-15880384D01*
X12339643Y-15870860D01*
X12358690Y-15861336D01*
X12492024Y-15861336D02*
X12615833Y-15861336D01*
X12549167Y-15937527D01*
X12577738Y-15937527D01*
X12596786Y-15947050D01*
X12606309Y-15956574D01*
X12615833Y-15975622D01*
X12615833Y-16023241D01*
X12606309Y-16042288D01*
X12596786Y-16051812D01*
X12577738Y-16061336D01*
X12520595Y-16061336D01*
X12501548Y-16051812D01*
X12492024Y-16042288D01*
X12711071Y-16061336D02*
X12749167Y-16061336D01*
X12768214Y-16051812D01*
X12777738Y-16042288D01*
X12796786Y-16013717D01*
X12806309Y-15975622D01*
X12806309Y-15899431D01*
X12796786Y-15880384D01*
X12787262Y-15870860D01*
X12768214Y-15861336D01*
X12730119Y-15861336D01*
X12711071Y-15870860D01*
X12701548Y-15880384D01*
X12692024Y-15899431D01*
X12692024Y-15947050D01*
X12701548Y-15966098D01*
X12711071Y-15975622D01*
X12730119Y-15985146D01*
X12768214Y-15985146D01*
X12787262Y-15975622D01*
X12796786Y-15966098D01*
X12806309Y-15947050D01*
X12977738Y-15928003D02*
X12977738Y-16061336D01*
X12930119Y-15851812D02*
X12882500Y-15994669D01*
X13006309Y-15994669D01*
X13072976Y-15861336D02*
X13072976Y-15899431D01*
X13149167Y-15861336D02*
X13149167Y-15899431D01*
X13444405Y-16137527D02*
X13434881Y-16128003D01*
X13415833Y-16099431D01*
X13406309Y-16080384D01*
X13396786Y-16051812D01*
X13387262Y-16004193D01*
X13387262Y-15966098D01*
X13396786Y-15918479D01*
X13406309Y-15889908D01*
X13415833Y-15870860D01*
X13434881Y-15842288D01*
X13444405Y-15832765D01*
X13606309Y-15861336D02*
X13568214Y-15861336D01*
X13549167Y-15870860D01*
X13539643Y-15880384D01*
X13520595Y-15908955D01*
X13511071Y-15947050D01*
X13511071Y-16023241D01*
X13520595Y-16042288D01*
X13530119Y-16051812D01*
X13549167Y-16061336D01*
X13587262Y-16061336D01*
X13606309Y-16051812D01*
X13615833Y-16042288D01*
X13625357Y-16023241D01*
X13625357Y-15975622D01*
X13615833Y-15956574D01*
X13606309Y-15947050D01*
X13587262Y-15937527D01*
X13549167Y-15937527D01*
X13530119Y-15947050D01*
X13520595Y-15956574D01*
X13511071Y-15975622D01*
X13796786Y-15928003D02*
X13796786Y-16061336D01*
X13749167Y-15851812D02*
X13701548Y-15994669D01*
X13825357Y-15994669D01*
X14053928Y-16061336D02*
X14053928Y-15861336D01*
X14139643Y-16061336D02*
X14139643Y-15956574D01*
X14130119Y-15937527D01*
X14111071Y-15928003D01*
X14082500Y-15928003D01*
X14063452Y-15937527D01*
X14053928Y-15947050D01*
X14263452Y-16061336D02*
X14244405Y-16051812D01*
X14234881Y-16042288D01*
X14225357Y-16023241D01*
X14225357Y-15966098D01*
X14234881Y-15947050D01*
X14244405Y-15937527D01*
X14263452Y-15928003D01*
X14292024Y-15928003D01*
X14311071Y-15937527D01*
X14320595Y-15947050D01*
X14330119Y-15966098D01*
X14330119Y-16023241D01*
X14320595Y-16042288D01*
X14311071Y-16051812D01*
X14292024Y-16061336D01*
X14263452Y-16061336D01*
X14444405Y-16061336D02*
X14425357Y-16051812D01*
X14415833Y-16032765D01*
X14415833Y-15861336D01*
X14596786Y-16051812D02*
X14577738Y-16061336D01*
X14539643Y-16061336D01*
X14520595Y-16051812D01*
X14511071Y-16032765D01*
X14511071Y-15956574D01*
X14520595Y-15937527D01*
X14539643Y-15928003D01*
X14577738Y-15928003D01*
X14596786Y-15937527D01*
X14606309Y-15956574D01*
X14606309Y-15975622D01*
X14511071Y-15994669D01*
X14682500Y-16051812D02*
X14701548Y-16061336D01*
X14739643Y-16061336D01*
X14758690Y-16051812D01*
X14768214Y-16032765D01*
X14768214Y-16023241D01*
X14758690Y-16004193D01*
X14739643Y-15994669D01*
X14711071Y-15994669D01*
X14692024Y-15985146D01*
X14682500Y-15966098D01*
X14682500Y-15956574D01*
X14692024Y-15937527D01*
X14711071Y-15928003D01*
X14739643Y-15928003D01*
X14758690Y-15937527D01*
X14834881Y-16137527D02*
X14844405Y-16128003D01*
X14863452Y-16099431D01*
X14872976Y-16080384D01*
X14882500Y-16051812D01*
X14892024Y-16004193D01*
X14892024Y-15966098D01*
X14882500Y-15918479D01*
X14872976Y-15889908D01*
X14863452Y-15870860D01*
X14844405Y-15842288D01*
X14834881Y-15832765D01*
X9843211Y-16305571D02*
X9843211Y-16164149D01*
X9701789Y-16164149D01*
X9701789Y-16305571D01*
X9843211Y-16305571D01*
X10215833Y-16192003D02*
X10215833Y-16325336D01*
X10168214Y-16115812D02*
X10120595Y-16258669D01*
X10244405Y-16258669D01*
X10320595Y-16306288D02*
X10330119Y-16315812D01*
X10320595Y-16325336D01*
X10311071Y-16315812D01*
X10320595Y-16306288D01*
X10320595Y-16325336D01*
X10396786Y-16125336D02*
X10520595Y-16125336D01*
X10453929Y-16201527D01*
X10482500Y-16201527D01*
X10501548Y-16211050D01*
X10511071Y-16220574D01*
X10520595Y-16239622D01*
X10520595Y-16287241D01*
X10511071Y-16306288D01*
X10501548Y-16315812D01*
X10482500Y-16325336D01*
X10425357Y-16325336D01*
X10406310Y-16315812D01*
X10396786Y-16306288D01*
X10644405Y-16125336D02*
X10663452Y-16125336D01*
X10682500Y-16134860D01*
X10692024Y-16144384D01*
X10701548Y-16163431D01*
X10711071Y-16201527D01*
X10711071Y-16249146D01*
X10701548Y-16287241D01*
X10692024Y-16306288D01*
X10682500Y-16315812D01*
X10663452Y-16325336D01*
X10644405Y-16325336D01*
X10625357Y-16315812D01*
X10615833Y-16306288D01*
X10606310Y-16287241D01*
X10596786Y-16249146D01*
X10596786Y-16201527D01*
X10606310Y-16163431D01*
X10615833Y-16144384D01*
X10625357Y-16134860D01*
X10644405Y-16125336D01*
X10834881Y-16125336D02*
X10853929Y-16125336D01*
X10872976Y-16134860D01*
X10882500Y-16144384D01*
X10892024Y-16163431D01*
X10901548Y-16201527D01*
X10901548Y-16249146D01*
X10892024Y-16287241D01*
X10882500Y-16306288D01*
X10872976Y-16315812D01*
X10853929Y-16325336D01*
X10834881Y-16325336D01*
X10815833Y-16315812D01*
X10806310Y-16306288D01*
X10796786Y-16287241D01*
X10787262Y-16249146D01*
X10787262Y-16201527D01*
X10796786Y-16163431D01*
X10806310Y-16144384D01*
X10815833Y-16134860D01*
X10834881Y-16125336D01*
X10987262Y-16325336D02*
X10987262Y-16192003D01*
X10987262Y-16211050D02*
X10996786Y-16201527D01*
X11015833Y-16192003D01*
X11044405Y-16192003D01*
X11063452Y-16201527D01*
X11072976Y-16220574D01*
X11072976Y-16325336D01*
X11072976Y-16220574D02*
X11082500Y-16201527D01*
X11101548Y-16192003D01*
X11130119Y-16192003D01*
X11149167Y-16201527D01*
X11158690Y-16220574D01*
X11158690Y-16325336D01*
X11253928Y-16325336D02*
X11253928Y-16192003D01*
X11253928Y-16211050D02*
X11263452Y-16201527D01*
X11282500Y-16192003D01*
X11311071Y-16192003D01*
X11330119Y-16201527D01*
X11339643Y-16220574D01*
X11339643Y-16325336D01*
X11339643Y-16220574D02*
X11349167Y-16201527D01*
X11368214Y-16192003D01*
X11396786Y-16192003D01*
X11415833Y-16201527D01*
X11425357Y-16220574D01*
X11425357Y-16325336D01*
X11815833Y-16115812D02*
X11644405Y-16372955D01*
X12072976Y-16125336D02*
X12092024Y-16125336D01*
X12111071Y-16134860D01*
X12120595Y-16144384D01*
X12130119Y-16163431D01*
X12139643Y-16201527D01*
X12139643Y-16249146D01*
X12130119Y-16287241D01*
X12120595Y-16306288D01*
X12111071Y-16315812D01*
X12092024Y-16325336D01*
X12072976Y-16325336D01*
X12053928Y-16315812D01*
X12044405Y-16306288D01*
X12034881Y-16287241D01*
X12025357Y-16249146D01*
X12025357Y-16201527D01*
X12034881Y-16163431D01*
X12044405Y-16144384D01*
X12053928Y-16134860D01*
X12072976Y-16125336D01*
X12225357Y-16306288D02*
X12234881Y-16315812D01*
X12225357Y-16325336D01*
X12215833Y-16315812D01*
X12225357Y-16306288D01*
X12225357Y-16325336D01*
X12425357Y-16325336D02*
X12311071Y-16325336D01*
X12368214Y-16325336D02*
X12368214Y-16125336D01*
X12349167Y-16153908D01*
X12330119Y-16172955D01*
X12311071Y-16182479D01*
X12596786Y-16125336D02*
X12558690Y-16125336D01*
X12539643Y-16134860D01*
X12530119Y-16144384D01*
X12511071Y-16172955D01*
X12501548Y-16211050D01*
X12501548Y-16287241D01*
X12511071Y-16306288D01*
X12520595Y-16315812D01*
X12539643Y-16325336D01*
X12577738Y-16325336D01*
X12596786Y-16315812D01*
X12606309Y-16306288D01*
X12615833Y-16287241D01*
X12615833Y-16239622D01*
X12606309Y-16220574D01*
X12596786Y-16211050D01*
X12577738Y-16201527D01*
X12539643Y-16201527D01*
X12520595Y-16211050D01*
X12511071Y-16220574D01*
X12501548Y-16239622D01*
X12711071Y-16325336D02*
X12749167Y-16325336D01*
X12768214Y-16315812D01*
X12777738Y-16306288D01*
X12796786Y-16277717D01*
X12806309Y-16239622D01*
X12806309Y-16163431D01*
X12796786Y-16144384D01*
X12787262Y-16134860D01*
X12768214Y-16125336D01*
X12730119Y-16125336D01*
X12711071Y-16134860D01*
X12701548Y-16144384D01*
X12692024Y-16163431D01*
X12692024Y-16211050D01*
X12701548Y-16230098D01*
X12711071Y-16239622D01*
X12730119Y-16249146D01*
X12768214Y-16249146D01*
X12787262Y-16239622D01*
X12796786Y-16230098D01*
X12806309Y-16211050D01*
X12872976Y-16125336D02*
X12996786Y-16125336D01*
X12930119Y-16201527D01*
X12958690Y-16201527D01*
X12977738Y-16211050D01*
X12987262Y-16220574D01*
X12996786Y-16239622D01*
X12996786Y-16287241D01*
X12987262Y-16306288D01*
X12977738Y-16315812D01*
X12958690Y-16325336D01*
X12901548Y-16325336D01*
X12882500Y-16315812D01*
X12872976Y-16306288D01*
X13072976Y-16125336D02*
X13072976Y-16163431D01*
X13149167Y-16125336D02*
X13149167Y-16163431D01*
X13444405Y-16401527D02*
X13434881Y-16392003D01*
X13415833Y-16363431D01*
X13406309Y-16344384D01*
X13396786Y-16315812D01*
X13387262Y-16268193D01*
X13387262Y-16230098D01*
X13396786Y-16182479D01*
X13406309Y-16153908D01*
X13415833Y-16134860D01*
X13434881Y-16106288D01*
X13444405Y-16096765D01*
X13625357Y-16325336D02*
X13511071Y-16325336D01*
X13568214Y-16325336D02*
X13568214Y-16125336D01*
X13549167Y-16153908D01*
X13530119Y-16172955D01*
X13511071Y-16182479D01*
X13863452Y-16325336D02*
X13863452Y-16125336D01*
X13949167Y-16325336D02*
X13949167Y-16220574D01*
X13939643Y-16201527D01*
X13920595Y-16192003D01*
X13892024Y-16192003D01*
X13872976Y-16201527D01*
X13863452Y-16211050D01*
X14072976Y-16325336D02*
X14053928Y-16315812D01*
X14044405Y-16306288D01*
X14034881Y-16287241D01*
X14034881Y-16230098D01*
X14044405Y-16211050D01*
X14053928Y-16201527D01*
X14072976Y-16192003D01*
X14101548Y-16192003D01*
X14120595Y-16201527D01*
X14130119Y-16211050D01*
X14139643Y-16230098D01*
X14139643Y-16287241D01*
X14130119Y-16306288D01*
X14120595Y-16315812D01*
X14101548Y-16325336D01*
X14072976Y-16325336D01*
X14253928Y-16325336D02*
X14234881Y-16315812D01*
X14225357Y-16296765D01*
X14225357Y-16125336D01*
X14406309Y-16315812D02*
X14387262Y-16325336D01*
X14349167Y-16325336D01*
X14330119Y-16315812D01*
X14320595Y-16296765D01*
X14320595Y-16220574D01*
X14330119Y-16201527D01*
X14349167Y-16192003D01*
X14387262Y-16192003D01*
X14406309Y-16201527D01*
X14415833Y-16220574D01*
X14415833Y-16239622D01*
X14320595Y-16258669D01*
X14482500Y-16401527D02*
X14492024Y-16392003D01*
X14511071Y-16363431D01*
X14520595Y-16344384D01*
X14530119Y-16315812D01*
X14539643Y-16268193D01*
X14539643Y-16230098D01*
X14530119Y-16182479D01*
X14520595Y-16153908D01*
X14511071Y-16134860D01*
X14492024Y-16106288D01*
X14482500Y-16096765D01*
M02*
