G04 #@! TF.GenerationSoftware,KiCad,Pcbnew,(6.0.1-0)*
G04 #@! TF.CreationDate,2022-08-05T19:05:09-07:00*
G04 #@! TF.ProjectId,kint,6b696e74-2e6b-4696-9361-645f70636258,rev?*
G04 #@! TF.SameCoordinates,Original*
G04 #@! TF.FileFunction,Profile,NP*
%FSLAX46Y46*%
G04 Gerber Fmt 4.6, Leading zero omitted, Abs format (unit mm)*
G04 Created by KiCad (PCBNEW (6.0.1-0)) date 2022-08-05 19:05:09*
%MOMM*%
%LPD*%
G01*
G04 APERTURE LIST*
G04 #@! TA.AperFunction,Profile*
%ADD10C,0.050000*%
G04 #@! TD*
G04 #@! TA.AperFunction,Profile*
%ADD11C,0.100000*%
G04 #@! TD*
G04 APERTURE END LIST*
D10*
X198700000Y-62003600D02*
X98750000Y-62003600D01*
D11*
X105918000Y-108204000D02*
X105918000Y-110617000D01*
X110490000Y-108458000D02*
X108331000Y-108458000D01*
X110490000Y-110871000D02*
X108331000Y-110871000D01*
X108077000Y-108204000D02*
X105918000Y-108204000D01*
X105918000Y-110617000D02*
X108077000Y-110617000D01*
X191008000Y-108204000D02*
X191008000Y-110617000D01*
X186436000Y-110871000D02*
X188595000Y-110871000D01*
X188849000Y-110617000D02*
X188595000Y-110871000D01*
X188849000Y-108204000D02*
X188595000Y-108458000D01*
X186436000Y-108458000D02*
X186436000Y-110871000D01*
X188849000Y-108204000D02*
X191008000Y-108204000D01*
X191008000Y-110617000D02*
X188849000Y-110617000D01*
X186436000Y-108458000D02*
X188595000Y-108458000D01*
D10*
X98750000Y-148003600D02*
X198700000Y-148003600D01*
X198700000Y-148003600D02*
X198700000Y-62003600D01*
X98750000Y-62003600D02*
X98750000Y-148003600D01*
D11*
X108077000Y-110617000D02*
X108331000Y-110871000D01*
X110490000Y-108458000D02*
X110490000Y-110871000D01*
X108077000Y-108204000D02*
X108331000Y-108458000D01*
M02*
